/* XPM */
static char *result[] = {
/* columns rows colors chars-per-pixel */
"64 64 167 2 ",
"   c #4E4E4E",
".  c gray30",
"X  c #4F5152",
"o  c #4F5354",
"O  c #6C9FB1",
"+  c #77BCD4",
"@  c #76BAD2",
"#  c #77BCD2",
"$  c #85E3FF",
"%  c #84E1FF",
"&  c #84DFFE",
"*  c #83DEFD",
"=  c #82DDFC",
"-  c #7DD6F6",
";  c #77CFEF",
":  c #73CAEA",
">  c #73C9EA",
",  c #74CBEB",
"<  c #79D0F1",
"1  c #7ED7F7",
"2  c #69BDDE",
"3  c #61B2D5",
"4  c #5EAED1",
"5  c #5DADD0",
"6  c #5EAFD2",
"7  c #62B3D5",
"8  c #69BCDE",
"9  c #75CCED",
"0  c #81DBFA",
"q  c #7FD9F9",
"w  c #6CC0E2",
"e  c #5FAFD2",
"r  c #67BADC",
"t  c #79D1F1",
"y  c #84DEFE",
"u  c #80DAFA",
"i  c #65B7D9",
"p  c #66B8DA",
"a  c #63B5D7",
"s  c #60B0D3",
"d  c #60B1D4",
"f  c #70C5E6",
"g  c #64B6D9",
"h  c #81DCFB",
"j  c #80DAF9",
"k  c #7BD3F3",
"l  c #7BD4F4",
"z  c #7ED8F7",
"x  c #62B4D6",
"c  c #66B8DB",
"v  c #7FD8F8",
"b  c #5DACD0",
"n  c #78CFEF",
"m  c #7AD2F2",
"M  c #6EC3E4",
"N  c #75CBEC",
"B  c #83DDFC",
"V  c #83DFFE",
"C  c #75CCEC",
"Z  c #5DADD1",
"A  c #77BAD1",
"S  c #85E0FF",
"D  c #84DEFD",
"F  c #85DFFD",
"G  c #78CEEE",
"H  c #5EADD0",
"J  c #60B0D2",
"K  c #7AD1F0",
"L  c #515252",
"P  c #95ABB3",
"I  c #AECCD7",
"U  c #ACCAD5",
"Y  c #ADCBD5",
"T  c #A6C4CF",
"R  c #81A4B7",
"E  c #7A9FB3",
"W  c #81A8BB",
"Q  c #9BBECC",
"!  c #ABC9D4",
"~  c gray32",
"^  c #A5A4A3",
"/  c #C3C2C1",
"(  c #C2C0BF",
")  c #C2C0C0",
"_  c #C1C0BF",
"`  c #A6ACB2",
"'  c #8998A5",
"]  c #8998A4",
"[  c #8C9AA6",
"{  c #9CA5AD",
"}  c #B0B3B7",
"|  c gray74",
" . c #C2C1C0",
".. c #A4A4A4",
"X. c gray76",
"o. c #C1C1C1",
"O. c #C0C1C1",
"+. c #BEBEBF",
"@. c #A0A9B1",
"#. c #8A99A6",
"$. c #8898A5",
"%. c #8A9AA6",
"&. c #93A0AA",
"*. c #A2ABB2",
"=. c #B2B6B9",
"-. c #BDBEBF",
";. c #C0C0C0",
":. c gray75",
">. c #AAB0B5",
",. c #919EA9",
"<. c #8B9AA7",
"1. c #96A2AC",
"2. c #A9AFB5",
"3. c #BABCBD",
"4. c #B9BBBD",
"5. c #A6ADB3",
"6. c #8999A5",
"7. c #929FAA",
"8. c #A8AFB5",
"9. c #BBBDBE",
"0. c #AEB3B8",
"q. c #9EA7B0",
"w. c #8999A6",
"e. c #99A4AD",
"r. c #B7B9BC",
"t. c #AEB3B7",
"y. c #9DA7AF",
"u. c #8D9CA8",
"i. c #B5B8BB",
"p. c #9CA6AE",
"a. c #BCBDBE",
"s. c #C1C0C1",
"d. c #BEBFBF",
"f. c #A3ABB2",
"g. c #ABB1B6",
"h. c #95A2AC",
"j. c #9FA8B0",
"k. c #BFBFC0",
"l. c #9BA6AF",
"z. c #BFC0C0",
"x. c #B2B6BA",
"c. c #8F9DA8",
"v. c #A2AAB1",
"b. c #B4B8BA",
"n. c #8B9AA6",
"m. c #9BA6AE",
"M. c #B3B7BA",
"N. c #A4ACB3",
"B. c #8F9DA9",
"V. c #8C9BA7",
"C. c #95A1AB",
"Z. c #94A1AB",
"A. c #909EA9",
"S. c #8D9BA7",
"D. c #AAB0B6",
"F. c #919FAA",
"G. c #8B9BA7",
"H. c #B4B7BA",
"J. c #A9B0B5",
"K. c #A7AEB4",
"L. c #ADB2B7",
"P. c #C0C0C1",
"I. c #A5A5A5",
"U. c gray77",
"Y. c #515151",
"T. c #8E8E8E",
"R. c white",
/* pixels */
"                                                                                                                                ",
"    . . . . . . . . . . . . . . . . . . . . . . . . . . . . . . . . . . . . . . . . . . . . . . . . . . . . . . . . . . . .     ",
"  .   X o o o o o o o o o o o o o o o o o o o o o o o o o o o o o o o o o o o o o o o o o o o o o o o o o o o o o o o o X   .   ",
"  . X O + @ @ @ @ @ @ @ @ @ @ @ @ @ @ @ @ @ @ @ @ @ @ @ @ @ @ @ @ @ @ @ @ @ @ @ @ @ @ @ @ @ @ @ @ @ @ @ @ @ @ @ @ @ @ + O X .   ",
"  . o # $ % % % % % % % % % % % % % % % % % % % % % % % % % % % % % % % % % % % % % % % % % % % % % % % % % % % % % % $ # o .   ",
"  . o @ % & & & & & & & & & & & & & & & & & & & & & & & & & & & & & & & & & & & & & & & & & & & & & & & & & & & & & & % @ o .   ",
"  . o @ % & & & & & & & & & & & & & & & & & & & & & & & & & & & & & & & & & & & & & & & & & & & & & & & & & & & & & & % @ o .   ",
"  . o @ % & & & & & & & & & & & & & & & & & & & & & & & & & & & & & & & & & & & & & & & & & & & & & & & & & & & & & & % @ o .   ",
"  . o @ % & & & & & & & & & & & & & & & & & & & & & & & & & & & & & & & & & & & & & & & & & & & & & & & & & & & & & & % @ o .   ",
"  . o @ % & & & & & & & & & & & & & & & & & & & & & & & & & & & & & & & & & & & & & & & & & & & & & & & & & & & & & & % @ o .   ",
"  . o @ % & & & & & & & & & & & & & & & & & & & & & & & & & & & & & & & & & & & & & & & & & & & & & & & & & & & & & & % @ o .   ",
"  . o @ % & & & & & & & & & & & & & & & & & & & & & & & & & & & & & & & & & & & & & & & & & & & & & & & & & & & & & & % @ o .   ",
"  . o @ % & & & & & & & & & & & & & & & & & & & & & & & & & & & & & & & & & & & & & & & & & & & & & & & & & & & & & & % @ o .   ",
"  . o @ % & & & & & & & & & & & & & & & & & & & & & & & & & & & & & & & & & & & & & & & & & & & & & & & & & & & & & & % @ o .   ",
"  . o @ % & & & & & & & & & & & & & & & & & & & & & & & & & & & & & & & & & & & & & & & & & & & & & & & & & & & & & & % @ o .   ",
"  . o @ % & & & & & & & & & & & & & & & & & & & & & & & & & & & & & & & & & & & & & & & & & & & & & & & & & & & & & & % @ o .   ",
"  . o @ % & & & & & & & & & & & & & & & & & & & & & & & & & & & & & & & & & & & & & & & & & & & & & & & & & & & & & & % @ o .   ",
"  . o @ % & & & & & & & & & & & & & & & & & & & & & & & & & & & & & & & & & & & & & & & & & & & & & & & & & & & & & & % @ o .   ",
"  . o @ % & & & & & & & & & & & & & & & & & & & & & & & & & & & & & & & & & & & & & & & & & & & & & & & & & & & & & & % @ o .   ",
"  . o @ % & & & & & & & & & & & & & & & & & & & & * & & = - ; : > , < 1 = & & * & & & & & & & & & & & & & & & & & & & % @ o .   ",
"  . o @ % & & & & & & & & & & & & & & & & & & & * & = ; 2 3 4 5 5 5 6 7 8 9 0 & & * & & & & & & & & & & & & & & & & & % @ o .   ",
"  . o @ % & & & & & & & & & & & & & & & & & & * & q w e 5 5 5 5 5 5 5 5 5 4 r t * & * & & & & & & & & & & & & & & & & % @ o .   ",
"  . o @ % & & & & & & & & & & & & & & & & & y & u 8 5 5 5 4 3 i p a s 5 5 5 5 d > * & & & & & & & & & & & & & & & & & % @ o .   ",
"  . o @ % & & & & & & & & & & & & & & & & & & * f 5 5 5 g , 1 0 h j k f a 5 5 5 d l & & & & & & & & & & & & & & & & & % @ o .   ",
"  . o @ % & & & & & & & & & & & & & & & & & & z x 5 5 c 1 & & & & & & & v f d b s k & & & & & & & & & & & & & & & & & % @ o .   ",
"  . o @ % & & & & & & & & & & & & & & & & & & ; 4 5 e n & & & & & & & & & * m M N B & & & & & & & & & & & & & & & & & % @ o .   ",
"  . o @ % V V V V V V V V V V V V V V V V V & C Z 5 3 1 & V V V V V V V V V & & & & V V V V V V V V V V V V V V V V V % @ o .   ",
"  . o A S D D D D D D D D D D D D D D D D D F G 4 H J K F D D D D D D D D D D D D D D D D D D D D D D D D D D D D D D S A o .   ",
"  . L P I U U U U U U U U U U U U U U U U U Y T R E E W Q ! Y U U U U U U U U U U U U U U U U U U U U U U U U U U U U I P L .   ",
"  . ~ ^ / ( ( ( ( ( ( ( ( ( ( ( ( ( ( ( ( ( ) _ ` ' ' ] [ { } | )  .) ( ( ( ( ( ( ( ( ( ( ( ( ( ( ( ( ( ( ( ( ( ( ( ( / ^ ~ .   ",
"  . ~ ..X.o.o.o.o.o.o.o.o.o.o.o.o.o.o.o.o.o.O.o.+.@.#.$.$.$.%.&.*.=.-.o.o.o.o.o.o.o.o.o.o.o.o.o.o.o.o.o.o.o.o.o.o.o.o.X...~ .   ",
"  . ~ ..X.o.o.o.o.o.o.o.o.o.o.o.o.o.o.o.o.o.o.;.o.:.>.,.$.$.$.$.$.<.1.2.3.o.o.;.o.o.o.o.o.o.o.o.o.o.o.o.o.o.o.o.o.o.o.X...~ .   ",
"  . ~ ..X.o.o.o.o.o.o.o.o.o.o.o.o.o.o.o.o.o.o.o.;.o.o.4.5.&.#.$.$.$.$.6.7.8.-.o.o.o.o.o.o.o.o.o.o.o.o.o.o.o.o.o.o.o.o.X...~ .   ",
"  . ~ ..X.o.o.o.o.o.o.o.o.o.o.o.o.o.o.o.o.o.o.o.o.o.o.o.o.9.0.q.,.#.$.$.$.w.e.r.o.o.o.o.o.o.o.o.o.o.o.o.o.o.o.o.o.o.o.X...~ .   ",
"  . ~ ..X.o.o.o.o.o.o.o.o.o.o.o.o.o.o.o.o.o.o.o.o.o.o.o.o.o.o.;.3.t.y.u.$.$.$.7.i.o.;.o.o.o.o.o.o.o.o.o.o.o.o.o.o.o.o.X...~ .   ",
"  . ~ ..X.o.o.o.o.o.o.o.o.o.o.o.o.o.o.o.o.o.o.o.o.o.o.o.o.o.o.o.o.o.;.i.p.#.$.$.1.a.o.o.o.o.o.o.o.o.o.o.o.o.o.o.o.o.o.X...~ .   ",
"  . ~ ..X.o.o.o.o.o.o.o.o.o.o.o.o.o.o.o.o.o.o.o.o.o.o.o.o.o.o.o.o.s.o.o.d.f.w.$.w.g.o.o.o.o.o.o.o.o.o.o.o.o.o.o.o.o.o.X...~ .   ",
"  . ~ ..X.o.o.o.o.o.o.o.o.o.o.o.o.o.o.o.o.o.;.o.o.o.O.o.o.o.o.o.o.o.o.;.o.-.h.$.$.j.o.o.o.o.o.o.o.o.o.o.o.o.o.o.o.o.o.X...~ .   ",
"  . ~ ..X.o.o.o.o.o.o.o.o.o.o.o.o.o.o.o.o.;.o.k.9.;.o.o.O.o.o.o.o.o.o.o.o.;.l.$.$.p.;.o.o.o.o.o.o.o.o.o.o.o.o.o.o.o.o.X...~ .   ",
"  . ~ ..X.o.o.o.o.o.o.o.o.o.o.o.o.o.o.o.o.o.-.j.,.j.i.z.o.o.o.o.o.o.o.o.o.x.c.$.$.v.o.o.o.o.o.o.o.o.o.o.o.o.o.o.o.o.o.X...~ .   ",
"  . ~ ..X.o.o.o.o.o.o.o.o.o.o.o.o.o.o.o.o.o.b.n.$.$.u.m.g.r.a.d.d.-.3.M.N.B.$.$.V.=.o.o.o.o.o.o.o.o.o.o.o.o.o.o.o.o.o.X...~ .   ",
"  . ~ ..X.o.o.o.o.o.o.o.o.o.o.o.o.o.o.o.o.o.3.C.$.$.$.$.w.u.7.1.1.Z.A.<.$.$.$.w.f.;.o.o.o.o.o.o.o.o.o.o.o.o.o.o.o.o.o.X...~ .   ",
"  . ~ ..X.o.o.o.o.o.o.o.o.o.o.o.o.o.o.o.o.o.o.4.f.A.w.$.$.$.$.$.$.$.$.$.$.$.S.N.d.o.;.o.o.o.o.o.o.o.o.o.o.o.o.o.o.o.o.X...~ .   ",
"  . ~ ..X.o.o.o.o.o.o.o.o.o.o.o.o.o.o.o.o.o.o.o.o.4.D.l.F.V.w.$.$.$.w.G.7.@.H.;.o.;.o.o.o.o.o.o.o.o.o.o.o.o.o.o.o.o.o.X...~ .   ",
"  . ~ ..X.o.o.o.o.o.o.o.o.o.o.o.o.o.o.o.o.o.o.o.o.o.o.;.9.i.0.J.K.8.L.H.9.;.o.o.P.o.o.o.o.o.o.o.o.o.o.o.o.o.o.o.o.o.o.X...~ .   ",
"  . ~ ..X.o.o.o.o.o.o.o.o.o.o.o.o.o.o.o.o.o.o.o.o.o.o.o.o.o.o.o.o.o.o.o.o.o.o.o.o.o.o.o.o.o.o.o.o.o.o.o.o.o.o.o.o.o.o.X...~ .   ",
"  . ~ ..X.o.o.o.o.o.o.o.o.o.o.o.o.o.o.o.o.o.o.o.o.o.o.o.o.o.o.o.o.o.o.o.o.o.o.o.o.o.o.o.o.o.o.o.o.o.o.o.o.o.o.o.o.o.o.X...~ .   ",
"  . ~ ..X.o.o.o.o.o.o.o.o.o.o.o.o.o.o.o.o.o.o.o.o.o.o.o.o.o.o.o.o.o.o.o.o.o.o.o.o.o.o.o.o.o.o.o.o.o.o.o.o.o.o.o.o.o.o.X...~ .   ",
"  . ~ ..X.o.o.o.o.o.o.o.o.o.o.o.o.o.o.o.o.o.o.o.o.o.o.o.o.o.o.o.o.o.o.o.o.o.o.o.o.o.o.o.o.o.o.o.o.o.o.o.o.o.o.o.o.o.o.X...~ .   ",
"  . ~ ..X.o.o.o.o.o.o.o.o.o.o.o.o.o.o.o.o.o.o.o.o.o.o.o.o.o.o.o.o.o.o.o.o.o.o.o.o.o.o.o.o.o.o.o.o.o.o.o.o.o.o.o.o.o.o.X...~ .   ",
"  . ~ ..X.o.o.o.o.o.o.o.o.o.o.o.o.o.o.o.o.o.o.o.o.o.o.o.o.o.o.o.o.o.o.o.o.o.o.o.o.o.o.o.o.o.o.o.o.o.o.o.o.o.o.o.o.o.o.X...~ .   ",
"  . ~ ..X.o.o.o.o.o.o.o.o.o.o.o.o.o.o.o.o.o.o.o.o.o.o.o.o.o.o.o.o.o.o.o.o.o.o.o.o.o.o.o.o.o.o.o.o.o.o.o.o.o.o.o.o.o.o.X...~ .   ",
"  . ~ ..X.o.o.o.o.o.o.o.o.o.o.o.o.o.o.o.o.o.o.o.o.o.o.o.o.o.o.o.o.o.o.o.o.o.o.o.o.o.o.o.o.o.o.o.o.o.o.o.o.o.o.o.o.o.o.X...~ .   ",
"  . ~ ..X.o.o.o.o.o.o.o.o.o.o.o.o.o.o.o.o.o.o.o.o.o.o.o.o.o.o.o.o.o.o.o.o.o.o.o.o.o.o.o.o.o.o.o.o.o.o.o.o.o.o.o.o.o.o.X...~ .   ",
"  . ~ ..X.o.o.o.o.o.o.o.o.o.o.o.o.o.o.o.o.o.o.o.o.o.o.o.o.o.o.o.o.o.o.o.o.o.o.o.o.o.o.o.o.o.o.o.o.o.o.o.o.o.o.o.o.o.o.X...~ .   ",
"  . ~ ..X.o.o.o.o.o.o.o.o.o.o.o.o.o.o.o.o.o.o.o.o.o.o.o.o.o.o.o.o.o.o.o.o.o.o.o.o.o.o.o.o.o.o.o.o.o.o.o.o.o.o.o.o.o.o.X...~ .   ",
"  . ~ ..X.o.o.o.o.o.o.o.o.o.o.o.o.o.o.o.o.o.o.o.o.o.o.o.o.o.o.o.o.o.o.o.o.o.o.o.o.o.o.o.o.o.o.o.o.o.o.o.o.o.o.o.o.o.o.X...~ .   ",
"  . ~ ..X.o.o.o.o.o.o.o.o.o.o.o.o.o.o.o.o.o.o.o.o.o.o.o.o.o.o.o.o.o.o.o.o.o.o.o.o.o.o.o.o.o.o.o.o.o.o.o.o.o.o.o.o.o.o.X...~ .   ",
"  . ~ ..X.o.o.o.o.o.o.o.o.o.o.o.o.o.o.o.o.o.o.o.o.o.o.o.o.o.o.o.o.o.o.o.o.o.o.o.o.o.o.o.o.o.o.o.o.o.o.o.o.o.o.o.o.o.o.X...~ .   ",
"  . ~ I.U.X.X.X.X.X.X.X.X.X.X.X.X.X.X.X.X.X.X.X.X.X.X.X.X.X.X.X.X.X.X.X.X.X.X.X.X.X.X.X.X.X.X.X.X.X.X.X.X.X.X.X.X.X.X.U.I.~ .   ",
"  . Y.T.I.............................................................................................................I.T.Y..   ",
"  .   Y.~ ~ ~ ~ ~ ~ ~ ~ ~ ~ ~ ~ ~ ~ ~ ~ ~ ~ ~ ~ ~ ~ ~ ~ ~ ~ ~ ~ ~ ~ ~ ~ ~ ~ ~ ~ ~ ~ ~ ~ ~ ~ ~ ~ ~ ~ ~ ~ ~ ~ ~ ~ ~ ~ ~ ~ Y.  .   ",
"    . . . . . . . . . . . . . . . . . . . . . . . . . . . . . . . . . . . . . . . . . . . . . . . . . . . . . . . . . . . .     ",
"                                                                                                                                "
};
