/* XPM */
static char *result[] = {
/* columns rows colors chars-per-pixel */
"64 64 154 2 ",
"   c #4E4E4E",
".  c gray30",
"X  c #515252",
"o  c #535454",
"O  c #9FB0B0",
"+  c #BBD2D2",
"@  c #BAD0D0",
"#  c #E2FFFF",
"$  c #E0FEFE",
"%  c #DEFCFC",
"&  c #DDFBFB",
"*  c #DFFCFC",
"=  c #DDFCFC",
"-  c #D9F7F8",
";  c #CCECEF",
":  c #D1F0F3",
">  c #D9F8F8",
",  c #CAEAEE",
"<  c #CCECF0",
"1  c #DBFAFA",
"2  c #DCFBFB",
"3  c #B7DAE1",
"4  c #9EC4D0",
"5  c #A2C7D3",
"6  c #C6E7EC",
"7  c #BADCE3",
"8  c #9DC3D0",
"9  c #9FC5D1",
"0  c #C5E6EB",
"q  c #DAF8F9",
"w  c #AACFD9",
"e  c #9BC2CF",
"r  c #9CC2CF",
"t  c #A6CAD6",
"y  c #D2F2F4",
"u  c #AED1DB",
"i  c #9BC1CF",
"p  c #B9DBE3",
"a  c #ABCFD9",
"s  c #9CC3D0",
"d  c #B2D5DE",
"f  c #DBF9FA",
"g  c #DDFBFC",
"h  c #AED2DB",
"j  c #9EC3D0",
"k  c #C2E3E9",
"l  c #A4C9D4",
"z  c #D0F0F2",
"x  c #B0D3DC",
"c  c #DAF9F9",
"v  c #A5C9D5",
"b  c #9EC4D1",
"n  c #BFE1E7",
"m  c #B9D0D0",
"M  c #DFFDFD",
"N  c #AACED8",
"B  c #9BC1CE",
"V  c #9CC1CF",
"C  c #B9DBE2",
"Z  c #CEEDF0",
"A  c #DEFCFB",
"S  c #DBF9F9",
"D  c #DEFBFB",
"F  c gray32",
"G  c #ABB2B2",
"H  c #CCD6D6",
"J  c #CAD4D4",
"K  c #C7D1D2",
"L  c #9CB0BA",
"P  c #8EA6B3",
"I  c #ADBDC4",
"U  c #BFCBCD",
"Y  c #97ACB7",
"T  c #8FA6B3",
"R  c #9FB3BD",
"E  c #C5D1D2",
"W  c #C8D2D3",
"Q  c #9FB2BC",
"!  c #A9BAC1",
"~  c #A4A3A3",
"^  c #C2C1C1",
"/  c #C0C0C0",
"(  c #BDBDBE",
")  c #94A0AA",
"_  c #8797A4",
"`  c #A4ABB2",
"'  c #C1C0C0",
"]  c #AAB0B5",
"[  c #8A99A5",
"{  c #8898A5",
"}  c #A3ABB1",
"|  c #C0BFBF",
" . c #BEBEBF",
".. c #97A2AC",
"X. c #A1A9B0",
"o. c #A4A4A4",
"O. c gray76",
"+. c #C1C1C1",
"@. c #95A1AB",
"#. c #A4ACB3",
"$. c #BFBFC0",
"%. c #9DA7AF",
"&. c #8C9BA7",
"*. c #B1B5B9",
"=. c #C0C1C1",
"-. c #97A3AD",
";. c #A1AAB1",
":. c #B8BABC",
">. c #929FAA",
",. c #BBBCBE",
"<. c #ADB2B7",
"1. c #8B9AA6",
"2. c #BFC0C0",
"3. c #A0A9B1",
"4. c #8B9AA7",
"5. c #AFB4B8",
"6. c #BABCBD",
"7. c #93A0AB",
"8. c #93A0AA",
"9. c #B9BBBD",
"0. c #9FA8B0",
"q. c #BDBEBF",
"w. c #98A3AD",
"e. c #A2AAB1",
"r. c #AAB0B6",
"t. c #BBBDBE",
"y. c #95A2AC",
"u. c #909DA9",
"i. c #909EA9",
"p. c #B2B6B9",
"a. c #8D9BA7",
"s. c #8999A6",
"d. c #8999A5",
"f. c #C0C0C1",
"g. c #BCBDBE",
"h. c #97A3AC",
"j. c #B4B7BA",
"k. c #8E9CA8",
"l. c #A7AEB4",
"z. c #99A4AD",
"x. c #8797A5",
"c. c #A9AFB5",
"v. c #9CA6AE",
"b. c #8798A5",
"n. c #A5ADB3",
"m. c #B4B8BA",
"M. c #A0A9B0",
"N. c #A5ACB3",
"B. c #A8AFB4",
"V. c #A5A5A5",
"C. c gray77",
"Z. c #515151",
"A. c #8E8E8E",
"S. c white",
/* pixels */
"                                                                                                                                ",
"    . . . . . . . . . . . . . . . . . . . . . . . . . . . . . . . . . . . . . . . . . . . . . . . . . . . . . . . . . . . .     ",
"  .   X o o o o o o o o o o o o o o o o o o o o o o o o o o o o o o o o o o o o o o o o o o o o o o o o o o o o o o o o X   .   ",
"  . X O + @ @ @ @ @ @ @ @ @ @ @ @ @ @ @ @ @ @ @ @ @ @ @ @ @ @ @ @ @ @ @ @ @ @ @ @ @ @ @ @ @ @ @ @ @ @ @ @ @ @ @ @ @ @ + O X .   ",
"  . o + # $ $ $ $ $ $ $ $ $ $ $ $ $ $ $ $ $ $ $ $ $ $ $ $ $ $ $ $ $ $ $ $ $ $ $ $ $ $ $ $ $ $ $ $ $ $ $ $ $ $ $ $ $ $ # + o .   ",
"  . o @ $ % % % % % % % % % % % % % % % % % % % % % % % % % % % % % % % % % % % % % % % % % % % % % % % % % % % % % % $ @ o .   ",
"  . o @ $ % % % % % % % % % % % % % % % % % % % % % % % % % % % % % % % % % % % % % % % % % % % % % % % % % % % % % % $ @ o .   ",
"  . o @ $ % % % % % % % % % % % % % % % % % % % % % % % % % % % % % % % % % % % % % % % % % % % % % % % % % % % % % % $ @ o .   ",
"  . o @ $ % % % % % % % % % % % % % % % % % % % % % % % % % % % % % % % % % % % % % % % % % % % % % % % % % % % % % % $ @ o .   ",
"  . o @ $ % % % % % % % % % % % % % % % % % % % % % % % % % % % % % % % % % % % % % % % % % % % % % % % % % % % % % % $ @ o .   ",
"  . o @ $ % % % % % % % % % % % % % % % % % % % % % % % % % % % % % % % % % % % % % % % % % % % % % % % % % % % % % % $ @ o .   ",
"  . o @ $ % % % % % % % % % % % % % % % % % % % % % % % % % % % % % % % % % % % % % % % % % % % % % % % % % % % % % % $ @ o .   ",
"  . o @ $ % % % % % % % % % % % % % % % % % % % % % % % % % % % % % % % % % % % % % % % % % % % % % % % % % % % % % % $ @ o .   ",
"  . o @ $ % % % % % % % % % % % % % % % % % % % % % % % % % % % % % % % % % % % % % % % % % % % % % % % % % % % % % % $ @ o .   ",
"  . o @ $ % % % % % % % % % % % % % % % % % % % % % % % % % % % % % % % % % % % % % % % % % % % % % % % % % % % % % % $ @ o .   ",
"  . o @ $ % % % % % % % % % % % % % % % % % % % % % % % % % % % % % % % % % % % % % % % % % % % % % % % % % % % % % % $ @ o .   ",
"  . o @ $ % % % % % % % % % % % % % % % % % % % % % % % % % % % % % % % % % % % % % % % % % % % % % % % % % % % % % % $ @ o .   ",
"  . o @ $ % % % % % % % % % % % % % % % % % % % % % % % % % % % % % % % % % % % % % % % % % % % % % % % % % % % % % % $ @ o .   ",
"  . o @ $ % % % % % % % % % % % % % % % % % & % % % % & % % % % % % % % % & % * % % & % % % % % % % % % % % % % % % % $ @ o .   ",
"  . o @ $ % % % % % % % % % % % % % % % % = % - ; : & % % % % % % % % % % % > , < 1 % % % % % % % % % % % % % % % % % $ @ o .   ",
"  . o @ $ % % % % % % % % % % % % % % % % % 2 3 4 5 6 % % % % % % % % % % & 7 8 9 0 % % % % % % % % % % % % % % % % % $ @ o .   ",
"  . o @ $ % % % % % % % % % % % % % % % % % q w e r t y % & % % % % % % % 1 u e i p % % % % % % % % % % % % % % % % % $ @ o .   ",
"  . o @ $ % % % % % % % % % % % % % % % % % q a r s r d f % g % % % % % % 1 h r e p % % % % % % % % % % % % % % % % % $ @ o .   ",
"  . o @ $ % % % % % % % % % % % % % % % % % q a r 8 r j k % % % % % % % % 1 h r e p % % % % % % % % % % % % % % % % % $ @ o .   ",
"  . o @ $ % % % % % % % % % % % % % % % % % q a r 8 8 r l z % & % % % % % 1 h r e p % % % % % % % % % % % % % % % % % $ @ o .   ",
"  . o @ $ % % % % % % % % % % % % % % % % % q a r 8 r r r x q % & % % % % 1 h r e p % % % % % % % % % % % % % % % % % $ @ o .   ",
"  . o @ $ % % % % % % % % % % % % % % % % % c a r 8 v b r 8 n % % % % % % 1 h r e p % % % % % % % % % % % % % % % % % $ @ o .   ",
"  . o m M & & & & & & & & & & & & & & & & & q N B V C d V r 5 Z A & & & & S u B B C D & & & & & & & & & & & & & & & & M m o .   ",
"  . F G H J J J J J J J J J J J J J J J J J K L P P I U Y T P R E J J J J W Q P P ! J J J J J J J J J J J J J J J J J H G F .   ",
"  . F ~ ^ / / / / / / / / / / / / / / / / / ( ) _ _ ` ' ] [ { { } | / / /  ..._ _ X./ / / / / / / / / / / / / / / / / ^ ~ F .   ",
"  . F o.O.+.+.+.+.+.+.+.+.+.+.+.+.+.+.+.+.+. .@.{ { #.+.$.%.{ { &.*.+.=.+.$.-.{ { ;.+.+.+.+.+.+.+.+.+.+.+.+.+.+.+.+.+.O.o.F .   ",
"  . F o.O.+.+.+.+.+.+.+.+.+.+.+.+.+.+.+.+.+. .@.{ { #.+.+.:.>.{ { @.,.+.+.$.-.{ { ;.+.+.+.+.+.+.+.+.+.+.+.+.+.+.+.+.+.O.o.F .   ",
"  . F o.O.+.+.+.+.+.+.+.+.+.+.+.+.+.+.+.+.+. .@.{ { #.+.+.+.<.1.{ { ;./ +.$.-.{ { ;.+.+.+.+.+.+.+.+.+.+.+.+.+.+.+.+.+.O.o.F .   ",
"  . F o.O.+.+.+.+.+.+.+.+.+.+.+.+.+.+.+.+.+. .@.{ { #.+.+.+.2.3.{ { 4.5.+.$.-.{ { ;.+.+.+.+.+.+.+.+.+.+.+.+.+.+.+.+.+.O.o.F .   ",
"  . F o.O.+.+.+.+.+.+.+.+.+.+.+.+.+.+.+.+.+. .@.{ { #.+.+./ +.6.7.{ { 8.9.2.-.{ { ;.+.+.+.+.+.+.+.+.+.+.+.+.+.+.+.+.+.O.o.F .   ",
"  . F o.O.+.+.+.+.+.+.+.+.+.+.+.+.+.+.+.+.+. .@.{ { #.+.+.+.=.+.5.&.{ { 0.q.w.{ { ;.+.+.+.+.+.+.+.+.+.+.+.+.+.+.+.+.+.O.o.F .   ",
"  . F o.O.+.+.+.+.+.+.+.+.+.+.+.+.+.+.+.+.+. .@.{ { #.+.+.+.+.+./ e.{ { 1.r.w.{ { ;.+.+.+.+.+.+.+.+.+.+.+.+.+.+.+.+.+.O.o.F .   ",
"  . F o.O.+.+.+.+.+.+.+.+.+.+.+.+.+.+.+.+.+. .@.{ { #.+.+.+.+./ +.t.y.{ { u.i.{ { ;.+.+.+.+.+.+.+.+.+.+.+.+.+.+.+.+.+.O.o.F .   ",
"  . F o.O.+.+.+.+.+.+.+.+.+.+.+.+.+.+.+.+.+. .@.{ { #.+.+.+.+.+./ +.p.a.{ { { s.{ ;.+.+.+.+.+.+.+.+.+.+.+.+.+.+.+.+.+.O.o.F .   ",
"  . F o.O.+.+.+.+.+.+.+.+.+.+.+.+.+.+.+.+.+. .@.{ { #.+.+.+.+.+.+.+./ #.d.{ { s.{ ;.+.+.+.+.+.+.+.+.+.+.+.+.+.+.+.+.+.O.o.F .   ",
"  . F o.O.+.+.+.+.+.+.+.+.+.+.+.+.+.+.+.+.+. .@.{ { #.+.+.+.+.+.+.f.+.g.h.{ s.s.{ ;.+.+.+.+.+.+.+.+.+.+.+.+.+.+.+.+.+.O.o.F .   ",
"  . F o.O.+.+.+.+.+.+.+.+.+.+.+.+.+.+.+.+.+. .@.{ { #.+.+.+.+.+.+.+./ +.j.k.{ s.{ ;.+.+.+.+.+.+.+.+.+.+.+.+.+.+.+.+.+.O.o.F .   ",
"  . F o.O.+.+.+.+.+.+.+.+.+.+.+.+.+.+.+.+.+. .@.{ { #.+.+.+.+.+.+.+.+.+.+.l.s.{ { ;.+.+.+.+.+.+.+.+.+.+.+.+.+.+.+.+.+.O.o.F .   ",
"  . F o.O.+.+.+.+.+.+.+.+.+.+.+.+.+.+.+.+.+.$.z.x.{ c.+.+.+.+.+.+.+.+.+.+.q.v.{ b.n.+.+.+.+.+.+.+.+.+.+.+.+.+.+.+.+.+.O.o.F .   ",
"  . F o.O.+.+.+.+.+.+.+.+.+.+.+.+.+.+.+.+.+.+.m.M.N.t.+.+.+.+.+.+.+.+.+./ +.t.B.n.6.+.+.+.+.+.+.+.+.+.+.+.+.+.+.+.+.+.O.o.F .   ",
"  . F o.O.+.+.+.+.+.+.+.+.+.+.+.+.+.+.+.+.+.+.+.+.+.+./ +.+.+.+.+.+.+.+.+./ +.+.+.+./ +.+.+.+.+.+.+.+.+.+.+.+.+.+.+.+.O.o.F .   ",
"  . F o.O.+.+.+.+.+.+.+.+.+.+.+.+.+.+.+.+.+.+.+.+.+.+.+.+.+.+.+.+.+.+.+.+.+.+.+.+.+.+.+.+.+.+.+.+.+.+.+.+.+.+.+.+.+.+.O.o.F .   ",
"  . F o.O.+.+.+.+.+.+.+.+.+.+.+.+.+.+.+.+.+.+.+.+.+.+.+.+.+.+.+.+.+.+.+.+.+.+.+.+.+.+.+.+.+.+.+.+.+.+.+.+.+.+.+.+.+.+.O.o.F .   ",
"  . F o.O.+.+.+.+.+.+.+.+.+.+.+.+.+.+.+.+.+.+.+.+.+.+.+.+.+.+.+.+.+.+.+.+.+.+.+.+.+.+.+.+.+.+.+.+.+.+.+.+.+.+.+.+.+.+.O.o.F .   ",
"  . F o.O.+.+.+.+.+.+.+.+.+.+.+.+.+.+.+.+.+.+.+.+.+.+.+.+.+.+.+.+.+.+.+.+.+.+.+.+.+.+.+.+.+.+.+.+.+.+.+.+.+.+.+.+.+.+.O.o.F .   ",
"  . F o.O.+.+.+.+.+.+.+.+.+.+.+.+.+.+.+.+.+.+.+.+.+.+.+.+.+.+.+.+.+.+.+.+.+.+.+.+.+.+.+.+.+.+.+.+.+.+.+.+.+.+.+.+.+.+.O.o.F .   ",
"  . F o.O.+.+.+.+.+.+.+.+.+.+.+.+.+.+.+.+.+.+.+.+.+.+.+.+.+.+.+.+.+.+.+.+.+.+.+.+.+.+.+.+.+.+.+.+.+.+.+.+.+.+.+.+.+.+.O.o.F .   ",
"  . F o.O.+.+.+.+.+.+.+.+.+.+.+.+.+.+.+.+.+.+.+.+.+.+.+.+.+.+.+.+.+.+.+.+.+.+.+.+.+.+.+.+.+.+.+.+.+.+.+.+.+.+.+.+.+.+.O.o.F .   ",
"  . F o.O.+.+.+.+.+.+.+.+.+.+.+.+.+.+.+.+.+.+.+.+.+.+.+.+.+.+.+.+.+.+.+.+.+.+.+.+.+.+.+.+.+.+.+.+.+.+.+.+.+.+.+.+.+.+.O.o.F .   ",
"  . F o.O.+.+.+.+.+.+.+.+.+.+.+.+.+.+.+.+.+.+.+.+.+.+.+.+.+.+.+.+.+.+.+.+.+.+.+.+.+.+.+.+.+.+.+.+.+.+.+.+.+.+.+.+.+.+.O.o.F .   ",
"  . F o.O.+.+.+.+.+.+.+.+.+.+.+.+.+.+.+.+.+.+.+.+.+.+.+.+.+.+.+.+.+.+.+.+.+.+.+.+.+.+.+.+.+.+.+.+.+.+.+.+.+.+.+.+.+.+.O.o.F .   ",
"  . F o.O.+.+.+.+.+.+.+.+.+.+.+.+.+.+.+.+.+.+.+.+.+.+.+.+.+.+.+.+.+.+.+.+.+.+.+.+.+.+.+.+.+.+.+.+.+.+.+.+.+.+.+.+.+.+.O.o.F .   ",
"  . F o.O.+.+.+.+.+.+.+.+.+.+.+.+.+.+.+.+.+.+.+.+.+.+.+.+.+.+.+.+.+.+.+.+.+.+.+.+.+.+.+.+.+.+.+.+.+.+.+.+.+.+.+.+.+.+.O.o.F .   ",
"  . F o.O.+.+.+.+.+.+.+.+.+.+.+.+.+.+.+.+.+.+.+.+.+.+.+.+.+.+.+.+.+.+.+.+.+.+.+.+.+.+.+.+.+.+.+.+.+.+.+.+.+.+.+.+.+.+.O.o.F .   ",
"  . F V.C.O.O.O.O.O.O.O.O.O.O.O.O.O.O.O.O.O.O.O.O.O.O.O.O.O.O.O.O.O.O.O.O.O.O.O.O.O.O.O.O.O.O.O.O.O.O.O.O.O.O.O.O.O.O.C.V.F .   ",
"  . Z.A.V.o.o.o.o.o.o.o.o.o.o.o.o.o.o.o.o.o.o.o.o.o.o.o.o.o.o.o.o.o.o.o.o.o.o.o.o.o.o.o.o.o.o.o.o.o.o.o.o.o.o.o.o.o.o.V.A.Z..   ",
"  .   Z.F F F F F F F F F F F F F F F F F F F F F F F F F F F F F F F F F F F F F F F F F F F F F F F F F F F F F F F F Z.  .   ",
"    . . . . . . . . . . . . . . . . . . . . . . . . . . . . . . . . . . . . . . . . . . . . . . . . . . . . . . . . . . . .     ",
"                                                                                                                                "
};
