/* XPM */
static char *result[] = {
/* columns rows colors chars-per-pixel */
"64 64 189 2 ",
"   c #4E4E4E",
".  c gray30",
"X  c #505252",
"o  c #515353",
"O  c #7FA2A4",
"+  c #91BFC3",
"@  c #90BDC1",
"#  c #A8E7EC",
"$  c #A7E5EA",
"%  c #A6E3E8",
"&  c #A5E2E7",
"*  c #9AD6DE",
"=  c #95D1DA",
"-  c #A1DEE4",
";  c #A3E0E6",
":  c #97D3DB",
">  c #97D4DC",
",  c #A4E1E6",
"<  c #99D5DD",
"1  c #79B4C4",
"2  c #75B0C0",
"3  c #88C4D0",
"4  c #90CBD6",
"5  c #76B1C1",
"6  c #77B2C2",
"7  c #92CED7",
"8  c #93CFD8",
"9  c #7DB8C6",
"0  c #83BECB",
"q  c #8AC6D1",
"w  c #79B4C3",
"e  c #9CD9E0",
"r  c #7DB9C7",
"t  c #91CDD7",
"y  c #9FDBE2",
"u  c #7AB6C5",
"i  c #96D2DA",
"p  c #98D5DD",
"a  c #A3DFE5",
"s  c #7FBBC8",
"d  c #8ECAD5",
"f  c #96D2DB",
"g  c #7AB5C4",
"h  c #9EDBE2",
"j  c #86C1CE",
"k  c #87C3CF",
"l  c #A2DFE5",
"z  c #A5E3E8",
"x  c #8DC9D4",
"c  c #80BCC9",
"v  c #87C2CE",
"b  c #A7E4E9",
"n  c #A6E2E7",
"m  c #A7E3E8",
"M  c #95D0D9",
"N  c #76B1C0",
"B  c #7BB6C5",
"V  c #A2DFE4",
"C  c #91CCD6",
"Z  c #8FCBD5",
"A  c #A1DDE3",
"S  c #80BBC8",
"D  c #8DC9D3",
"F  c #A6E3E7",
"G  c #515252",
"H  c #9DACAE",
"J  c #B9CDCF",
"K  c #B7CCCD",
"L  c #B8CCCE",
"P  c #ACC2C6",
"I  c #85A3B0",
"U  c #82A0AE",
"Y  c #84A2B0",
"T  c #AAC1C6",
"R  c #9CB6BE",
"E  c #81A0AE",
"W  c #97B2BB",
"Q  c #B6CBCD",
"!  c #B0C6C9",
"~  c #88A5B2",
"^  c #83A1AE",
"/  c #A5BCC2",
"(  c gray32",
")  c #A4A3A3",
"_  c #C3C2C2",
"`  c #C1C0C0",
"'  c #BBBBBD",
"]  c #909DA9",
"[  c #8898A5",
"{  c #8998A5",
"}  c #ABB0B5",
"|  c #C2C1C0",
" . c #BABBBC",
".. c #919DA9",
"X. c #8D9BA7",
"o. c #B5B8BA",
"O. c #C2C0C0",
"+. c #B2B5B9",
"@. c #8B99A6",
"#. c #8C9AA6",
"$. c #B5B7BA",
"%. c #A4A4A4",
"&. c gray76",
"*. c #C1C1C1",
"=. c #BEBFBF",
"-. c #97A2AC",
";. c #A2ABB2",
":. c #A7AEB4",
">. c #8899A6",
",. c #A1AAB1",
"<. c #C0C0C0",
"1. c #AAB0B5",
"2. c #909EA9",
"3. c #BABCBD",
"4. c #C0C0C1",
"5. c #9EA8B0",
"6. c #9AA5AE",
"7. c #BFC0C0",
"8. c #BCBDBE",
"9. c #94A0AB",
"0. c #8F9DA9",
"q. c #B8BABC",
"w. c #97A3AC",
"e. c #93A0AA",
"r. c #ABB1B6",
"t. c #8999A6",
"y. c #8A9AA6",
"u. c #A5ADB3",
"i. c #BFBFC0",
"p. c #98A4AD",
"a. c #9FA9B0",
"s. c #AFB4B8",
"d. c #8A99A6",
"f. c #8D9CA8",
"g. c #B7B9BC",
"h. c #BEBEBF",
"j. c #9FA8B0",
"k. c #929FAA",
"l. c #BBBCBE",
"z. c #BBBDBE",
"x. c #919FAA",
"c. c #A8AFB4",
"v. c #B6B9BC",
"b. c #B0B4B8",
"n. c #C2C2C1",
"m. c #B5B8BB",
"M. c #8C9BA7",
"N. c #B0B5B9",
"B. c #9BA5AE",
"V. c #9CA6AF",
"C. c #96A2AC",
"Z. c #AEB3B8",
"A. c #B7BABC",
"S. c #99A4AD",
"D. c #B3B7BA",
"F. c #B1B5B9",
"G. c #8B9AA7",
"H. c #A6ADB4",
"J. c #9CA7AF",
"K. c #93A0AB",
"L. c #8B9AA6",
"P. c #C0C1C0",
"I. c #ADB2B7",
"U. c #A3ABB2",
"Y. c #B2B6B9",
"T. c #919EA9",
"R. c #B9BBBD",
"E. c #BCBDBF",
"W. c #95A1AB",
"Q. c #ACB1B6",
"!. c #8F9DA8",
"~. c #8898A6",
"^. c #A9AFB5",
"/. c #B4B7BA",
"(. c #BDBEBF",
"). c #94A1AB",
"_. c #8E9CA8",
"`. c #B6B9BB",
"'. c #A5ACB3",
"]. c #A8AFB5",
"[. c #8798A5",
"{. c #A4ACB2",
"}. c #ACB2B7",
"|. c #C1C1C0",
" X c #A5A5A5",
".X c gray77",
"XX c #515151",
"oX c #8E8E8E",
"OX c white",
/* pixels */
"                                                                                                                                ",
"    . . . . . . . . . . . . . . . . . . . . . . . . . . . . . . . . . . . . . . . . . . . . . . . . . . . . . . . . . . . .     ",
"  .   X o o o o o o o o o o o o o o o o o o o o o o o o o o o o o o o o o o o o o o o o o o o o o o o o o o o o o o o o X   .   ",
"  . X O + @ @ @ @ @ @ @ @ @ @ @ @ @ @ @ @ @ @ @ @ @ @ @ @ @ @ @ @ @ @ @ @ @ @ @ @ @ @ @ @ @ @ @ @ @ @ @ @ @ @ @ @ @ @ + O X .   ",
"  . o + # $ $ $ $ $ $ $ $ $ $ $ $ $ $ $ $ $ $ $ $ $ $ $ $ $ $ $ $ $ $ $ $ $ $ $ $ $ $ $ $ $ $ $ $ $ $ $ $ $ $ $ $ $ $ # + o .   ",
"  . o @ $ % % % % % % % % % % % % % % % % % % % % % % % % % % % % % % % % % % % % % % % % % % % % % % % % % % % % % % $ @ o .   ",
"  . o @ $ % % % % % % % % % % % % % % % % % % % % % % % % % % % % % % % % % % % % % % % % % % % % % % % % % % % % % % $ @ o .   ",
"  . o @ $ % % % % % % % % % % % % % % % % % % % % % % % % % % % % % % % % % % % % % % % % % % % % % % % % % % % % % % $ @ o .   ",
"  . o @ $ % % % % % % % % % % % % % % % % % % % % % % % % % % % % % % % % % % % % % % % % % % % % % % % % % % % % % % $ @ o .   ",
"  . o @ $ % % % % % % % % % % % % % % % % % % % % % % % % % % % % % % % % % % % % % % % % % % % % % % % % % % % % % % $ @ o .   ",
"  . o @ $ % % % % % % % % % % % % % % % % % % % % % % % % % % % % % % % % % % % % % % % % % % % % % % % % % % % % % % $ @ o .   ",
"  . o @ $ % % % % % % % % % % % % % % % % % % % % % % % % % % % % % % % % % % % % % % % % % % % % % % % % % % % % % % $ @ o .   ",
"  . o @ $ % % % % % % % % % % % % % % % % % % % % % % % % % % % % % % % % % % % % % % % % % % % % % % % % % % % % % % $ @ o .   ",
"  . o @ $ % % % % % % % % % % % % % % % % % % % % % % % % % % % % % % % % % % % % % % % % % % % % % % % % % % % % % % $ @ o .   ",
"  . o @ $ % % % % % % % % % % % % % % % % % % % % % % % % % % % % % % % % % % % % % % % % % % % % % % % % % % % % % % $ @ o .   ",
"  . o @ $ % % % % % % % % % % % % % % % % % % % % % % % % % % % % % % % % % % % % % % % % % % % % % % % % % % % % % % $ @ o .   ",
"  . o @ $ % % % % % % % % % % % % % % % % % % % % % % % % % % % % % % % % % % % % % % % % % % % % % % % % % % % % % % $ @ o .   ",
"  . o @ $ % % % % % % % % % % % % % % % % % % % % % % % % % % % % % % % % % % % % % % % % % % % % % % % % % % % % % % $ @ o .   ",
"  . o @ $ % % % % % % % % % % % % % & % % % % & % % % % % % % % % % % % % % % % & % % % % & % % % % % % % % % % % % % $ @ o .   ",
"  . o @ $ % % % % % % % % % % % % % % & * = - % % % % % % % % % % % % % % % % % % ; : > , % % % % % % % % % % % % % % $ @ o .   ",
"  . o @ $ % % % % % % % % % % % % % % < 1 2 3 & % % % % % % % % % % % % % % % % % 4 5 6 7 % % % % % % % % % % % % % % $ @ o .   ",
"  . o @ $ % % % % % % % % % % % % % % 8 2 2 9 - % % % % % % % % % % % % % % % % , 0 2 2 q % % % % % % % % % % % % % % $ @ o .   ",
"  . o @ $ % % % % % % % % % % % % % % < 6 2 w e % % % % % % % % % % % % % % % % - r 2 2 t % % % % % % % % % % % % % % $ @ o .   ",
"  . o @ $ % % % % % % % % % % % % % % y u 2 5 i % % % % % % % % % % % % % % % % e w 2 6 p % % % % % % % % % % % % % % $ @ o .   ",
"  . o @ $ % % % % % % % % % % % % % % a s 2 2 d % % % % % % % % % % % % % % % % f 5 2 g h % % % % % % % % % % % % % % $ @ o .   ",
"  . o @ $ % % % % % % % % % % % % % % & j 2 2 k & % % % % % % % % % % % % % % % d 2 2 s l % % % % % % % % % % % % % % $ @ o .   ",
"  . o @ $ z z z z z z z z z z z z z z % x 2 2 c ; % z z z z % % % % z z z z % & v 2 2 j & % z z z z z z z z z z z z z $ @ o .   ",
"  . o @ b n n n n n n n n n n n n n n m M N 2 B y n n n n n V C Z A n n n n n a S 2 2 D F n n n n n n n n n n n n n n b @ o .   ",
"  . G H J K K K K K K K K K K K K K K L P I U Y T L K K K K R U E W Q K K K L ! ~ U ^ / L K K K K K K K K K K K K K K J H G .   ",
"  . ( ) _ ` ` ` ` ` ` ` ` ` ` ` ` ` ` ` ' ] [ { } | ` ` `  ...[ [ X.o.O.` ` | +.@.[ #.$.O.` ` ` ` ` ` ` ` ` ` ` ` ` ` _ ) ( .   ",
"  . ( %.&.*.*.*.*.*.*.*.*.*.*.*.*.*.*.*.=.-.[ [ ;.*.*.*.*.:.[ [ >.[ ,.<.*.*.*.1.[ [ 2.3.*.*.*.*.*.*.*.*.*.*.*.*.*.*.*.&.%.( .   ",
"  . ( %.&.*.*.*.*.*.*.*.*.*.*.*.*.*.*.*.4.5.[ [ 6.7.*.*.8.9.[ [ [ [ 0.q.*.*.*.,.[ [ w.=.*.*.*.*.*.*.*.*.*.*.*.*.*.*.*.&.%.( .   ",
"  . ( %.&.*.*.*.*.*.*.*.*.*.*.*.*.*.*.*.*.:.[ [ e.8.*.*.r.t.[ y.y.[ [ u.*.*.i.p.[ [ a.*.*.*.*.*.*.*.*.*.*.*.*.*.*.*.*.&.%.( .   ",
"  . ( %.&.*.*.*.*.*.*.*.*.*.*.*.*.*.*.*.*.s.d.[ f.g.*.h.w.[ [ 6.j.[ [ k.l.*.z.x.[ [ c.*.*.*.*.*.*.*.*.*.*.*.*.*.*.*.*.&.%.( .   ",
"  . ( %.&.*.*.*.*.*.*.*.*.*.*.*.*.*.*.*.*.v.f.[ d.b.n.s.y.[ y.b.m.X.[ t.1.n.m.M.[ d.N.*.*.*.*.*.*.*.*.*.*.*.*.*.*.*.*.&.%.( .   ",
"  . ( %.&.*.*.*.*.*.*.*.*.*.*.*.*.*.*.*.*.8.k.[ [ :.<.B.[ [ w.h.<.V.[ [ C.h.Z.t.[ f.A.*.*.*.*.*.*.*.*.*.*.*.*.*.*.*.*.&.%.( .   ",
"  . ( %.&.*.*.*.*.*.*.*.*.*.*.*.*.*.*.*.*.7.S.[ [ a.D.M.[ t.r.*.*.F.G.[ d.Z.H.[ [ e.8.*.*.*.*.*.*.*.*.*.*.*.*.*.*.*.*.&.%.( .   ",
"  . ( %.&.*.*.*.*.*.*.*.*.*.*.*.*.*.*.*.*.*.,.[ [ C.J.[ [ K.8.*.*.=.p.[ [ S.6.[ [ 6.<.*.*.*.*.*.*.*.*.*.*.*.*.*.*.*.*.&.%.( .   ",
"  . ( %.&.*.*.*.*.*.*.*.*.*.*.*.*.*.*.*.*.*.1.[ [ L.G.[ [ :.*.*.P.*.I.d.[ y.G.[ [ U.*.*.*.*.*.*.*.*.*.*.*.*.*.*.*.*.*.&.%.( .   ",
"  . ( %.&.*.*.*.*.*.*.*.*.*.*.*.*.*.*.*.*.*.Y.L.[ [ [ [ T.R.*.*.*.*.E.W.[ [ [ [ t.Q.*.*.*.*.*.*.*.*.*.*.*.*.*.*.*.*.*.&.%.( .   ",
"  . ( %.&.*.*.*.*.*.*.*.*.*.*.*.*.*.*.*.*.*.R.!.[ t.~.[ U.*.*.*.*.*.*.^.t.[ t.[ G./.*.*.*.*.*.*.*.*.*.*.*.*.*.*.*.*.*.&.%.( .   ",
"  . ( %.&.*.*.*.*.*.*.*.*.*.*.*.*.*.*.*.*.*.(.).[ t.[ _.`.*.*.*.*.*.*.3.k.[ t.[ 2.3.*.*.*.*.*.*.*.*.*.*.*.*.*.*.*.*.*.&.%.( .   ",
"  . ( %.&.*.*.*.*.*.*.*.*.*.*.*.*.*.*.*.*.*.<.V.[ t.[ j.<.*.*.*.*.*.*.*.'.[ [ [ C.=.*.*.*.*.*.*.*.*.*.*.*.*.*.*.*.*.*.&.%.( .   ",
"  . ( %.&.*.*.*.*.*.*.*.*.*.*.*.*.*.*.*.*.*.*.].[ [.X./.*.4.*.*.*.*.*.*.q.2.[.[.;.*.*.*.*.*.*.*.*.*.*.*.*.*.*.*.*.*.*.&.%.( .   ",
"  . ( %.&.*.*.*.*.*.*.*.*.*.*.*.*.*.*.*.*.*.*.(.{.S.}.<.*.*.*.*.*.*.*.*.*.b.6.,.3.*.*.*.*.*.*.*.*.*.*.*.*.*.*.*.*.*.*.&.%.( .   ",
"  . ( %.&.*.*.*.*.*.*.*.*.*.*.*.*.*.*.*.*.*.<.*.|.7.*.*.4.*.*.*.*.*.*.*.*.*.<.<.*.<.*.*.*.*.*.*.*.*.*.*.*.*.*.*.*.*.*.&.%.( .   ",
"  . ( %.&.*.*.*.*.*.*.*.*.*.*.*.*.*.*.*.*.*.*.*.*.*.*.*.*.*.*.*.*.*.*.*.*.*.*.*.*.*.*.*.*.*.*.*.*.*.*.*.*.*.*.*.*.*.*.&.%.( .   ",
"  . ( %.&.*.*.*.*.*.*.*.*.*.*.*.*.*.*.*.*.*.*.*.*.*.*.*.*.*.*.*.*.*.*.*.*.*.*.*.*.*.*.*.*.*.*.*.*.*.*.*.*.*.*.*.*.*.*.&.%.( .   ",
"  . ( %.&.*.*.*.*.*.*.*.*.*.*.*.*.*.*.*.*.*.*.*.*.*.*.*.*.*.*.*.*.*.*.*.*.*.*.*.*.*.*.*.*.*.*.*.*.*.*.*.*.*.*.*.*.*.*.&.%.( .   ",
"  . ( %.&.*.*.*.*.*.*.*.*.*.*.*.*.*.*.*.*.*.*.*.*.*.*.*.*.*.*.*.*.*.*.*.*.*.*.*.*.*.*.*.*.*.*.*.*.*.*.*.*.*.*.*.*.*.*.&.%.( .   ",
"  . ( %.&.*.*.*.*.*.*.*.*.*.*.*.*.*.*.*.*.*.*.*.*.*.*.*.*.*.*.*.*.*.*.*.*.*.*.*.*.*.*.*.*.*.*.*.*.*.*.*.*.*.*.*.*.*.*.&.%.( .   ",
"  . ( %.&.*.*.*.*.*.*.*.*.*.*.*.*.*.*.*.*.*.*.*.*.*.*.*.*.*.*.*.*.*.*.*.*.*.*.*.*.*.*.*.*.*.*.*.*.*.*.*.*.*.*.*.*.*.*.&.%.( .   ",
"  . ( %.&.*.*.*.*.*.*.*.*.*.*.*.*.*.*.*.*.*.*.*.*.*.*.*.*.*.*.*.*.*.*.*.*.*.*.*.*.*.*.*.*.*.*.*.*.*.*.*.*.*.*.*.*.*.*.&.%.( .   ",
"  . ( %.&.*.*.*.*.*.*.*.*.*.*.*.*.*.*.*.*.*.*.*.*.*.*.*.*.*.*.*.*.*.*.*.*.*.*.*.*.*.*.*.*.*.*.*.*.*.*.*.*.*.*.*.*.*.*.&.%.( .   ",
"  . ( %.&.*.*.*.*.*.*.*.*.*.*.*.*.*.*.*.*.*.*.*.*.*.*.*.*.*.*.*.*.*.*.*.*.*.*.*.*.*.*.*.*.*.*.*.*.*.*.*.*.*.*.*.*.*.*.&.%.( .   ",
"  . ( %.&.*.*.*.*.*.*.*.*.*.*.*.*.*.*.*.*.*.*.*.*.*.*.*.*.*.*.*.*.*.*.*.*.*.*.*.*.*.*.*.*.*.*.*.*.*.*.*.*.*.*.*.*.*.*.&.%.( .   ",
"  . ( %.&.*.*.*.*.*.*.*.*.*.*.*.*.*.*.*.*.*.*.*.*.*.*.*.*.*.*.*.*.*.*.*.*.*.*.*.*.*.*.*.*.*.*.*.*.*.*.*.*.*.*.*.*.*.*.&.%.( .   ",
"  . ( %.&.*.*.*.*.*.*.*.*.*.*.*.*.*.*.*.*.*.*.*.*.*.*.*.*.*.*.*.*.*.*.*.*.*.*.*.*.*.*.*.*.*.*.*.*.*.*.*.*.*.*.*.*.*.*.&.%.( .   ",
"  . ( %.&.*.*.*.*.*.*.*.*.*.*.*.*.*.*.*.*.*.*.*.*.*.*.*.*.*.*.*.*.*.*.*.*.*.*.*.*.*.*.*.*.*.*.*.*.*.*.*.*.*.*.*.*.*.*.&.%.( .   ",
"  . (  X.X&.&.&.&.&.&.&.&.&.&.&.&.&.&.&.&.&.&.&.&.&.&.&.&.&.&.&.&.&.&.&.&.&.&.&.&.&.&.&.&.&.&.&.&.&.&.&.&.&.&.&.&.&.&..X X( .   ",
"  . XXoX X%.%.%.%.%.%.%.%.%.%.%.%.%.%.%.%.%.%.%.%.%.%.%.%.%.%.%.%.%.%.%.%.%.%.%.%.%.%.%.%.%.%.%.%.%.%.%.%.%.%.%.%.%.%. XoXXX.   ",
"  .   XX( ( ( ( ( ( ( ( ( ( ( ( ( ( ( ( ( ( ( ( ( ( ( ( ( ( ( ( ( ( ( ( ( ( ( ( ( ( ( ( ( ( ( ( ( ( ( ( ( ( ( ( ( ( ( ( XX  .   ",
"    . . . . . . . . . . . . . . . . . . . . . . . . . . . . . . . . . . . . . . . . . . . . . . . . . . . . . . . . . . . .     ",
"                                                                                                                                "
};
