/* XPM */
static char *result[] = {
/* columns rows colors chars-per-pixel */
"64 64 119 2 ",
"   c #4E4E4E",
".  c gray30",
"X  c #4D4C4C",
"o  c gray31",
"O  c #585C5C",
"+  c #5A5E5F",
"@  c #5A5E5E",
"#  c #A9C5C8",
"$  c #BADBDD",
"%  c #B9D9DC",
"&  c #BADADD",
"*  c #CDF4F7",
"=  c #CCF2F5",
"-  c #CBF1F4",
";  c #C7EDF1",
":  c #C3E9EE",
">  c #C2E9ED",
",  c #C2E9EE",
"<  c #CAF0F3",
"1  c #BDE4EA",
"2  c #9EC7D4",
"3  c #97C0CF",
"4  c #96C0CF",
"5  c #96C0CE",
"6  c #A1CAD6",
"7  c #C4EAEF",
"8  c #A6CED9",
"9  c #8FB9C9",
"0  c #90BACA",
"q  c #91BACA",
"w  c #B8DFE6",
"e  c #C9EFF2",
"r  c #A0C9D6",
"t  c #91BBCB",
"y  c #93BDCC",
"u  c #93BCCC",
"i  c #9BC5D2",
"p  c #C1E8ED",
"a  c #A5CED9",
"s  c #BDE3EA",
"d  c #BCE3E9",
"f  c #C3EAEE",
"g  c #CBF0F3",
"h  c #ACD5DE",
"j  c #ACD4DE",
"k  c #B9D9DB",
"l  c #CCF1F4",
"z  c #C9EEF2",
"x  c #A0C9D5",
"c  c #90B9C9",
"v  c #ACD4DD",
"b  c #CBF1F3",
"n  c #595B5B",
"m  c #B3BEBE",
"M  c #C5D1D2",
"N  c #C4D0D1",
"B  c #C2CFD0",
"V  c #9BB0BA",
"C  c #8AA3B1",
"Z  c #A6B9C1",
"A  c #C4D1D2",
"S  c #B3BDBE",
"D  c gray35",
"F  c #B0AFAF",
"G  c #C1C1C1",
"H  c #C0C0C0",
"J  c gray75",
"K  c #98A3AC",
"L  c #8797A4",
"P  c #8897A4",
"I  c #A2AAB1",
"U  c #BEBEBF",
"Y  c gray",
"T  c #C1C0C0",
"R  c gray69",
"E  c gray76",
"W  c #BFBFC0",
"Q  c #98A3AD",
"!  c #8898A5",
"~  c #8F9DA8",
"^  c #96A2AC",
"/  c #95A2AC",
"(  c #95A2AB",
")  c #9AA5AE",
"_  c #B5B8BB",
"`  c #8999A6",
"'  c #8797A5",
"]  c #9FA8B0",
"[  c #A4ACB3",
"{  c #98A4AD",
"}  c #A9B0B5",
"|  c #ADB3B7",
" . c #BDBEBE",
".. c #C2C2C1",
"X. c #A3ABB2",
"o. c #A3ACB2",
"O. c #A2ABB2",
"+. c #BEBFC0",
"@. c #BEBFBF",
"#. c #BFC0C0",
"$. c #C0C0C1",
"%. c #9BA5AE",
"&. c #B7B9BC",
"*. c #9BA6AE",
"=. c #8798A5",
"-. c #8899A6",
";. c #ABB1B6",
":. c #8B9AA7",
">. c #8A99A6",
",. c #AAB0B5",
"<. c #B2B6B9",
"1. c #AAB1B6",
"2. c #AFB4B8",
"3. c #B1B1B1",
"4. c #C3C3C3",
"5. c gray34",
"6. c #A2A2A2",
"7. c #585858",
"8. c white",
/* pixels */
"                                                                                                                                ",
"    . . X X X X X X X X X X X X X X X X X X X X X X X X X X X X X X X X X X X X X X X X X X X X X X X X X X X X X X X X . .     ",
"  . o O + @ @ @ @ @ @ @ @ @ @ @ @ @ @ @ @ @ @ @ @ @ @ @ @ @ @ @ @ @ @ @ @ @ @ @ @ @ @ @ @ @ @ @ @ @ @ @ @ @ @ @ @ @ @ + O o .   ",
"  . O # $ % % % % % % % % % % % % % % % % % % % % % % % % % % % % % % % % % % % % % % % % % % % % % % % % % % % % % % $ # O .   ",
"  X @ & * = = = = = = = = = = = = = = = = = = = = = = = = = = = = = = = = = = = = = = = = = = = = = = = = = = = = = = * & @ X   ",
"  X @ % = - - - - - - - - - - - - - - - - - - - - - - - - - - - - - - - - - - - - - - - - - - - - - - - - - - - - - - = % @ X   ",
"  X @ % = - - - - - - - - - - - - - - - - - - - - - - - - - - - - - - - - - - - - - - - - - - - - - - - - - - - - - - = % @ X   ",
"  X @ % = - - - - - - - - - - - - - - - - - - - - - - - - - - - - - - - - - - - - - - - - - - - - - - - - - - - - - - = % @ X   ",
"  X @ % = - - - - - - - - - - - - - - - - - - - - - - - - - - - - - - - - - - - - - - - - - - - - - - - - - - - - - - = % @ X   ",
"  X @ % = - - - - - - - - - - - - - - - - - - - - - - - - - - - - - - - - - - - - - - - - - - - - - - - - - - - - - - = % @ X   ",
"  X @ % = - - - - - - - - - - - - - - - - - - - - - - - - - - - - - - - - - - - - - - - - - - - - - - - - - - - - - - = % @ X   ",
"  X @ % = - - - - - - - - - - - - - - - - - - - - - - - - - - - - - - - - - - - - - - - - - - - - - - - - - - - - - - = % @ X   ",
"  X @ % = - - - - - - - - - - - - - - - - - - - - - - - - - - - - - - - - - - - - - - - - - - - - - - - - - - - - - - = % @ X   ",
"  X @ % = - - - - - - - - - - - - - - - - - - - - - - - - - - - - - - - - - - - - - - - - - - - - - - - - - - - - - - = % @ X   ",
"  X @ % = - - - - - - - - - - - - - - - - - - - - - - - - - - - - - - - - - - - - - - - - - - - - - - - - - - - - - - = % @ X   ",
"  X @ % = - - - - - - - - - - - - - - - - - - - - - - - - - - - - - - - - - - - - - - - - - - - - - - - - - - - - - - = % @ X   ",
"  X @ % = - - - - - - - - - - - - - - - - - - - - - - - - - - - - - - - - - - - - - - - - - - - - - - - - - - - - - - = % @ X   ",
"  X @ % = - - - - - - - - - - - - - - - - - - - - - - - - - - - - - - - - - - - - - - - - - - - - - - - - - - - - - - = % @ X   ",
"  X @ % = - - - - - - - - - - - - - - - - - - - - - - - - - - - - - - - - - - - - - - - - - - - - - - - - - - - - - - = % @ X   ",
"  X @ % = - - - - - - - - - - - - - - - - - - - - ; : > > > > > > > > > > > > , ; - < - - - - - - - - - - - - - - - - = % @ X   ",
"  X @ % = - - - - - - - - - - - - - - - - - - - 1 2 3 4 4 4 4 4 4 4 4 4 4 4 4 5 6 7 - - - - - - - - - - - - - - - - - = % @ X   ",
"  X @ % = - - - - - - - - - - - - - - - - - - < 8 9 0 0 0 0 0 0 0 0 0 0 0 0 0 0 q w - - - - - - - - - - - - - - - - - = % @ X   ",
"  X @ % = - - - - - - - - - - - - - - - - - - e r 0 0 t y u u u u u u u u u u u i p - - - - - - - - - - - - - - - - - = % @ X   ",
"  X @ % = - - - - - - - - - - - - - - - - - - e r 0 0 a s d d d d d d d d d d d f g - - - - - - - - - - - - - - - - - = % @ X   ",
"  X @ % = - - - - - - - - - - - - - - - - - - e r 0 0 h = - - - - - - - - - - - - - - - - - - - - - - - - - - - - - - = % @ X   ",
"  X @ % = - - - - - - - - - - - - - - - - - - e r 0 0 j - - - - - - - - - - - - - - - - - - - - - - - - - - - - - - - = % @ X   ",
"  X @ % = - - - - - - - - - - - - - - - - - - e r 0 0 j - - - - - - - - - - - - - - - - - - - - - - - - - - - - - - - = % @ X   ",
"  X @ k l < < < < < < < < < < < < < < < < < g z x c c v b < < < < < < < < < < < < < < < < < < < < < < < < < < < < < < l k @ X   ",
"  . n m M N N N N N N N N N N N N N N N N N N B V C C Z A N N N N N N N N N N N N N N N N N N N N N N N N N N N N N N M S n .   ",
"  . D F G H H H H H H H H H H H H H H H H H H J K L P I U Y Y Y Y Y Y Y Y Y J T H H H H H H H H H H H H H H H H H H H G F D .   ",
"  . D R E G G G G G G G G G G G G G G G G G G W Q ! ! ~ ^ / / / / / / / / ( ) _ G G G G G G G G G G G G G G G G G G G E R D .   ",
"  . D R E G G G G G G G G G G G G G G G G G G W Q ! ` ! ! ! ! ! ! ! ! ! ! ! ' ] H G G G G G G G G G G G G G G G G G G E R D .   ",
"  . D R E G G G G G G G G G G G G G G G G G G W Q ! ` ! ! ! ! ! ! ! ! ! ! ! ` [ G G G G G G G G G G G G G G G G G G G E R D .   ",
"  . D R E G G G G G G G G G G G G G G G G G G W Q ! ! { } } } } } } } } } } |  .G G G G G G G G G G G G G G G G G G G E R D .   ",
"  . D R E G G G G G G G G G G G G G G G G G G W Q ! ! [ ..G G G G G G G G G G G H G G G G G G G G G G G G G G G G G G E R D .   ",
"  . D R E G G G G G G G G G G G G G G G G G G W Q ! ! X.G G G G G G G G G G G G G G G G G G G G G G G G G G G G G G G E R D .   ",
"  . D R E G G G G G G G G G G G G G G G G G G W Q ! ! X.G G G G G G G G G G G G G G G G G G G G G G G G G G G G G G G E R D .   ",
"  . D R E G G G G G G G G G G G G G G G G G G W Q ! ! X.G G G G G G G G G G G G G G G G G G G G G G G G G G G G G G G E R D .   ",
"  . D R E G G G G G G G G G G G G G G G G G G W Q ! ! X.G G G G G G G G G G G G G G G G G G G G G G G G G G G G G G G E R D .   ",
"  . D R E G G G G G G G G G G G G G G G G G G W Q ! ! o.G G G G G G G G G G G G G G G G G G G G G G G G G G G G G G G E R D .   ",
"  . D R E G G G G G G G G G G G G G G G G G G W Q ! ! O.+.@.@.@.@.@.@.@.@.@.@.@.#.G $.G G G G G G G G G G G G G G G G E R D .   ",
"  . D R E G G G G G G G G G G G G G G G G G G W Q ! ! ~ ^ / / / / / / / / / / ( %.&.G G G G G G G G G G G G G G G G G E R D .   ",
"  . D R E G G G G G G G G G G G G G G G G G G H *.=.-.! ! ! ! ! ! ! ! ! ! ! ! ! ' X.G G G G G G G G G G G G G G G G G E R D .   ",
"  . D R E G G G G G G G G G G G G G G G G G G G ;.:.! ! ! ! ! ! ! ! ! ! ! ! ! ! >.,.G G G G G G G G G G G G G G G G G E R D .   ",
"  . D R E G G G G G G G G G G G G G G G G G G G W <.;.1.1.1.1.1.1.1.1.1.1.1.1.1.2.@.G G G G G G G G G G G G G G G G G E R D .   ",
"  . D R E G G G G G G G G G G G G G G G G G G H G G G G G G G G G G G G G G G G G G H G G G G G G G G G G G G G G G G E R D .   ",
"  . D R E G G G G G G G G G G G G G G G G G G G G G G G G G G G G G G G G G G G G G G G G G G G G G G G G G G G G G G E R D .   ",
"  . D R E G G G G G G G G G G G G G G G G G G G G G G G G G G G G G G G G G G G G G G G G G G G G G G G G G G G G G G E R D .   ",
"  . D R E G G G G G G G G G G G G G G G G G G G G G G G G G G G G G G G G G G G G G G G G G G G G G G G G G G G G G G E R D .   ",
"  . D R E G G G G G G G G G G G G G G G G G G G G G G G G G G G G G G G G G G G G G G G G G G G G G G G G G G G G G G E R D .   ",
"  . D R E G G G G G G G G G G G G G G G G G G G G G G G G G G G G G G G G G G G G G G G G G G G G G G G G G G G G G G E R D .   ",
"  . D R E G G G G G G G G G G G G G G G G G G G G G G G G G G G G G G G G G G G G G G G G G G G G G G G G G G G G G G E R D .   ",
"  . D R E G G G G G G G G G G G G G G G G G G G G G G G G G G G G G G G G G G G G G G G G G G G G G G G G G G G G G G E R D .   ",
"  . D R E G G G G G G G G G G G G G G G G G G G G G G G G G G G G G G G G G G G G G G G G G G G G G G G G G G G G G G E R D .   ",
"  . D R E G G G G G G G G G G G G G G G G G G G G G G G G G G G G G G G G G G G G G G G G G G G G G G G G G G G G G G E R D .   ",
"  . D R E G G G G G G G G G G G G G G G G G G G G G G G G G G G G G G G G G G G G G G G G G G G G G G G G G G G G G G E R D .   ",
"  . D R E G G G G G G G G G G G G G G G G G G G G G G G G G G G G G G G G G G G G G G G G G G G G G G G G G G G G G G E R D .   ",
"  . D R E G G G G G G G G G G G G G G G G G G G G G G G G G G G G G G G G G G G G G G G G G G G G G G G G G G G G G G E R D .   ",
"  . D R E G G G G G G G G G G G G G G G G G G G G G G G G G G G G G G G G G G G G G G G G G G G G G G G G G G G G G G E R D .   ",
"  . D 3.4.E E E E E E E E E E E E E E E E E E E E E E E E E E E E E E E E E E E E E E E E E E E E E E E E E E E E E E 4.3.D .   ",
"  . 5.6.3.R R R R R R R R R R R R R R R R R R R R R R R R R R R R R R R R R R R R R R R R R R R R R R R R R R R R R R 3.6.5..   ",
"  . o 7.D D D D D D D D D D D D D D D D D D D D D D D D D D D D D D D D D D D D D D D D D D D D D D D D D D D D D D D D 7.o .   ",
"    . . . . . . . . . . . . . . . . . . . . . . . . . . . . . . . . . . . . . . . . . . . . . . . . . . . . . . . . . . . .     ",
"                                                                                                                                "
};
